<?xml version="1.0" standalone="no"?><!DOCTYPE svg PUBLIC "-//W3C//DTD SVG 1.1//EN" "http://www.w3.org/Graphics/SVG/1.1/DTD/svg11.dtd"><svg t="1515036287081" class="icon" style="" viewBox="0 0 1024 1024" version="1.1" xmlns="http://www.w3.org/2000/svg" p-id="3393" xmlns:xlink="http://www.w3.org/1999/xlink" width="32" height="32"><defs><style type="text/css">@font-face {
  font-family: "Roboto";
  font-style: normal;
  font-weight: normal;
  src: url("moz-extension://fd69a76e-12ab-bc43-a39a-5df4c3d049b2/Roboto-Regular.tff") format("tff");
}
</style></defs><path d="M981.080491 580.725244 716.417693 580.725244c-10.326183 0-18.696828-8.370645-18.696828-18.696828s8.370645-18.696828 18.696828-18.696828l264.663822 0c10.326183 0 18.696828 8.370645 18.696828 18.696828S991.406674 580.725244 981.080491 580.725244z" p-id="3394" fill="#a6a8a8"></path><path d="M848.746534 713.060225c-10.326183 0-18.696828-8.370645-18.696828-18.696828L830.049706 429.698552c0-10.326183 8.370645-18.696828 18.696828-18.696828s18.696828 8.370645 18.696828 18.696828l0 264.664845C867.442338 704.68958 859.072717 713.060225 848.746534 713.060225z" p-id="3395" fill="#a6a8a8"></path><path d="M695.002964 972.561467c-3.51915 0-7.078209-0.991584-10.240225-3.066849-35.496445-23.292496-93.529163-25.561166-97.130178-25.678846l-22.072715 0-35.287691 0.271176c-0.048095 0-0.095167 0-0.143263 0L52.314483 944.086949c-10.326183 0-18.696828-8.370645-18.696828-18.696828l0-22.467711c-0.318248-6.266727-0.910743-40.603767 21.004383-78.307484 13.716396-23.598464 33.431414-43.86095 58.598606-60.225663 30.493501-19.828604 69.117171-33.909297 114.797559-41.84913 0.233314-0.039909 0.466628-0.075725 0.700965-0.107447 0.346901-0.047072 35.499515-4.858658 71.207785-14.272052 61.894675-16.318664 67.307965-30.744211 67.345828-30.885428 0.364297-1.430582 0.89437-2.804882 1.573845-4.095271 0.50756-2.700505 1.76418-12.858866-0.63752-40.079834-6.100952-69.140707-42.122353-110.0003-71.065546-142.832056-9.124821-10.351766-17.745153-20.128433-24.38334-29.715789-28.640294-41.374316-31.29782-88.418772-31.397081-90.400916-0.01535-0.311085-0.022513-0.62217-0.022513-0.933255 0-18.780739 9.364275-27.420513 17.626449-35.043121l0.432859-0.399089c0.272199-0.25071 0.443092-0.437975 0.543376-0.557702 0.094144-1.341554-0.567935-4.749164-1.01512-7.05058-0.168846-0.867764-0.337691-1.739621-0.499373-2.615571-7.17747-38.995129-7.66661-99.204419-1.172709-137.844461 2.409886-50.810223 46.226834-89.712231 48.106648-91.356684 0.069585-0.061398 0.140193-0.121773 0.210801-0.181125 6.291287-5.341658 12.672624-11.175527 16.727986-17.639752 0.487094-0.775666 0.827855-1.37737 1.067308-1.836835-0.305969-0.786922-0.741897-1.793856-1.094938-2.608407-2.436492-5.618974-6.118348-14.109346-4.02364-25.02393 1.263783-6.589069 6.078439-18.36323 24.119327-23.174815 7.261381-1.937119 15.024182-2.333138 20.692275-2.62171l1.121544-0.058328c22.387893-1.177825 46.272883-2.175549 70.430072-0.324388 174.730557 13.396101 234.920404 78.686107 237.396805 81.459267 0.140193 0.155543 0.276293 0.314155 0.409322 0.474814 13.990642 16.761756 24.353664 37.639249 30.800493 62.055334 2.00875 7.597025 3.303232 13.994736 4.057409 20.073174 6.109138 35.489282 5.086855 71.916936 3.781116 96.271624-0.730641 13.669324-2.255367 28.024264-4.798283 45.173852-0.691755 4.656043 0.068562 5.564739 0.355087 5.906523 0.75827 0.907673 1.686409 1.893116 2.669806 2.935865 3.859911 4.097318 9.148357 9.708106 11.962449 18.710131 1.416256 4.538363 2.073218 9.388834 2.073218 15.277962 0 0.312108-0.008186 0.623193-0.022513 0.935302-0.099261 1.983167-2.759857 49.025577-31.399127 90.396823-6.639211 9.590426-15.260565 19.36914-24.388457 29.722952-28.941146 32.830733-64.960501 73.689303-71.061452 142.826939-2.4017 27.219945-1.144056 37.378306-0.63752 40.078811 0.679475 1.291412 1.209548 2.664689 1.573845 4.095271 0.036839 0.141216 5.470595 14.613836 67.647703 30.964222 35.7052 9.388834 70.557986 14.146185 70.90591 14.193257 0.303922 0.040932 0.606821 0.090051 0.908696 0.145309 46.095851 8.549723 84.956927 22.991644 115.505687 42.923602 25.252127 16.476253 44.930305 36.7019 58.490136 60.114123 21.50171 37.128619 20.626783 70.714552 20.195971 77.443813l0 22.332634c0 10.326183-8.370645 18.696828-18.696828 18.696828L786.342252 944.090019c-1.086751 0-2.153036-0.093121-3.188622-0.271176l-29.052686 0c-10.326183 0-18.696828-8.370645-18.696828-18.696828s8.370645-18.696828 18.696828-18.696828l52.092425 0c1.086751 0 2.152013 0.093121 3.187599 0.271176l84.267219 0L893.648187 902.385175c0-0.686638 0.00921-1.106194 0.081864-1.769296 0.104377-1.508353 1.627057-28.332279-16.349363-58.130955-10.82044-17.936511-26.589588-33.609469-46.870494-46.580898-26.101471-16.693194-59.762105-28.967752-100.05274-36.482913-4.6366-0.642636-39.011502-5.563716-75.082022-15.059997-70.7606-18.629289-87.962378-39.352263-93.188402-54.393841-4.00522-7.765871-6.246261-23.194258-2.986007-60.155055 7.18054-81.369216 49.41955-129.282458 80.261998-164.267251 8.746198-9.921977 16.301268-18.491143 21.693068-26.28055 21.358447-30.855752 24.470321-66.339918 24.769127-70.567195-0.028653-2.189875-0.239454-3.194762-0.36839-3.609201-0.2415-0.772596-1.89107-2.52245-3.485381-4.216022-1.252527-1.328251-2.669806-2.833535-4.139274-4.589528-7.950066-9.504468-10.782577-21.079084-8.66024-35.384905 2.367931-15.962553 3.781116-29.207206 4.448312-41.683355 1.214664-22.648836 2.184759-56.44557-3.363607-88.341001-0.057305-0.326435-0.105401-0.654916-0.145309-0.984421-0.533143-4.461615-1.531889-9.377578-3.142573-15.46932-4.984524-18.878976-12.726859-34.766828-23.011086-47.232744-1.714038-1.747807-15.385409-15.125489-45.884027-29.67588-54.882981-26.183336-120.791064-35.849486-166.417217-39.34817-21.932522-1.680269-44.437072-0.731664-65.609277 0.382717l-1.178849 0.060375c-1.768273 0.090051-4.738931 0.2415-7.562233 0.525979 2.448772 5.841032 5.453199 14.633279 2.297322 25.136493-1.187035 3.944845-3.006474 7.798617-5.726421 12.132318-6.727215 10.724249-15.917528 19.22997-24.047696 26.14138-1.570775 1.417279-34.227546 31.341822-35.353183 65.73719-0.028653 0.870834-0.11768 1.737574-0.267083 2.595105-5.970992 34.301224-5.568832 90.777493 0.895393 125.897362 0.13917 0.751107 0.285502 1.508353 0.431835 2.260483 1.984191 10.209526 5.304819 27.297716-10.875698 42.221614l-0.434905 0.401136c-2.086521 1.924839-4.943592 4.561899-5.417383 5.469572l0 0c0.00307 0-0.13303 0.426719-0.164752 1.584078 0.328481 4.295839 3.654226 40.060391 24.76401 70.555939 5.390777 7.78429 12.9438 16.352433 21.688975 26.272363 30.842449 34.985816 73.082482 82.901105 80.264045 164.272367 3.260254 36.95875 1.019213 52.389184-2.986007 60.156078-5.225001 15.041578-22.426779 35.764552-93.188402 54.393841-36.365232 9.574053-71.006194 14.497179-75.18947 15.074324-40.522925 7.078209-74.329892 19.290345-100.487645 36.299741-20.211321 13.143345-35.907815 29.181623-46.654576 47.669696-17.630542 30.332842-16.021905 57.212026-16.001439 57.475016 0.040932 0.499373 0.060375 1.001817 0.060375 1.50426l0 4.309142 459.035718 0 35.287691-0.271176c0.047072 0 0.095167 0 0.143263 0l22.423709 0c0.141216 0 0.280386 0.001023 0.421602 0.005117 2.895957 0.064468 71.450309 1.943258 116.953665 31.803333 8.633634 5.665023 11.039427 17.254989 5.374404 25.888624C707.061604 969.591833 701.091636 972.561467 695.002964 972.561467zM373.653095 667.334811c-0.490164 0.396019-0.937348 0.795109-1.341554 1.192152C372.738259 668.110477 373.186468 667.711388 373.653095 667.334811zM591.041194 667.363464c0.450255 0.36532 0.883113 0.750083 1.296529 1.154289C591.945797 668.134013 591.513962 667.74618 591.041194 667.363464z" p-id="3396" fill="#a6a8a8"></path></svg>