<?xml version="1.0" standalone="no"?><!DOCTYPE svg PUBLIC "-//W3C//DTD SVG 1.1//EN" "http://www.w3.org/Graphics/SVG/1.1/DTD/svg11.dtd"><svg t="1515036587190" class="icon" style="" viewBox="0 0 1024 1024" version="1.1" xmlns="http://www.w3.org/2000/svg" p-id="3893" xmlns:xlink="http://www.w3.org/1999/xlink" width="32" height="32"><defs><style type="text/css">@font-face {
  font-family: "Roboto";
  font-style: normal;
  font-weight: normal;
  src: url("moz-extension://fd69a76e-12ab-bc43-a39a-5df4c3d049b2/Roboto-Regular.tff") format("tff");
}
</style></defs><path d="M525.269211 510.837524 918.101111 116.227118c7.17747-7.209192 7.14984-18.871813-0.059352-26.049283-7.210215-7.176446-18.87079-7.151887-26.049283 0.059352L499.278257 484.72889 106.563014 90.236164c-7.17747-7.209192-18.84009-7.235798-26.049283-0.059352-7.209192 7.17747-7.235798 18.84009-0.059352 26.049283L473.287303 510.837524 80.45438 905.446907c-7.176446 7.209192-7.150864 18.871813 0.059352 26.049283 3.593851 3.577478 8.29492 5.365194 12.994965 5.365194 4.727675 0 9.455349-1.809205 13.054317-5.424546l392.715243-394.491703 392.715243 394.491703c3.599991 3.615341 8.326643 5.424546 13.054317 5.424546 4.700045 0 9.402137-1.787716 12.994965-5.365194 7.209192-7.17747 7.235798-18.84009 0.059352-26.049283L525.269211 510.837524z" p-id="3894" fill="#a6a8a8"></path></svg>